<svg width="2655" height="883" viewBox="0 0 2655 883" fill="none" xmlns="http://www.w3.org/2000/svg">
<path d="M411.316 882.038C394.016 881.338 386.416 880.538 365.816 877.438C346.516 874.438 323.116 868.838 305.316 862.838C303.716 862.338 300.816 861.438 298.916 861.038C297.116 860.538 295.116 859.738 294.516 859.138C293.916 858.538 292.516 858.038 291.516 858.038C290.516 858.038 288.016 857.338 286.016 856.438C283.916 855.538 280.816 854.238 279.016 853.438C277.216 852.638 275.216 852.038 274.716 852.038C273.816 852.038 251.916 841.938 246.816 839.138C246.016 838.738 240.616 835.838 234.816 832.838C213.316 821.438 196.116 811.338 192.816 808.038C192.516 807.738 191.516 807.138 190.616 806.538C186.316 803.938 177.916 797.938 174.816 795.138C172.916 793.438 171.016 792.038 170.616 792.038C169.816 792.038 158.516 782.438 142.716 768.338C123.216 750.938 115.616 742.838 88.4161 709.438C78.3161 697.038 52.4161 654.938 43.0161 635.538C34.2161 617.538 32.2161 612.838 27.9161 601.538C21.9161 585.638 14.9161 563.638 13.0161 555.038C12.4161 552.538 11.0161 546.838 9.9161 542.238C8.7161 537.638 7.8161 532.838 7.8161 531.438C7.8161 530.038 7.2161 526.138 6.4161 522.738C4.9161 516.638 3.01609 499.838 0.716091 474.538C-1.08391 454.038 0.716097 397.838 3.8161 377.538C4.4161 373.738 5.6161 366.038 6.4161 360.538C7.9161 351.038 8.61609 347.638 12.2161 333.438C13.1161 330.138 13.8161 326.438 13.8161 325.238C13.8161 324.038 14.4161 321.638 15.2161 319.838C16.0161 318.038 17.4161 313.838 18.4161 310.538C19.3161 307.238 20.7161 303.138 21.5161 301.338C22.2161 299.638 22.8161 297.838 22.8161 297.338C22.8161 296.238 28.5161 281.038 29.8161 278.838C30.4161 277.838 30.8161 276.638 30.8161 276.038C30.8161 275.138 32.6161 270.938 38.3161 258.538C41.7161 251.038 51.7161 231.238 53.6161 228.038C54.8161 226.138 56.2161 223.638 56.7161 222.438C57.2161 221.338 59.4161 217.438 61.6161 213.938C63.7161 210.438 65.7161 207.138 65.9161 206.538C66.9161 204.138 80.8161 183.638 87.7161 174.538C114.716 138.638 149.716 104.938 187.816 78.0376C195.416 72.7376 220.016 57.4376 223.816 55.6376C224.616 55.2376 228.016 53.4376 231.316 51.6376C242.916 45.1376 256.216 38.7376 267.816 34.0376C270.816 32.8376 274.516 31.2376 276.016 30.4376C277.416 29.6376 279.516 29.0376 280.516 29.0376C281.516 29.0376 282.816 28.6376 283.316 28.1376C283.916 27.6376 285.916 26.7376 287.816 26.2376C291.216 25.2376 294.216 24.2376 301.816 21.5376C305.216 20.3376 309.416 19.0376 322.316 15.5376C325.616 14.6376 329.916 13.3376 331.816 12.7376C333.716 12.1376 337.316 11.3376 339.816 11.0376C342.316 10.6376 346.316 9.83761 348.816 9.23761C359.316 6.73761 364.716 5.63761 370.816 5.03761C374.416 4.63761 381.116 3.73761 385.816 3.23761C418.916 -1.06239 466.416 -1.06239 497.316 3.13761C501.716 3.73761 508.016 4.63761 511.316 5.03761C514.616 5.43761 519.616 6.23761 522.316 6.83761C525.116 7.43761 529.616 8.43761 532.316 9.03761C535.116 9.63761 539.416 10.5376 542.116 11.0376C544.716 11.5376 548.316 12.3376 550.116 12.9376C551.816 13.4376 555.816 14.5376 558.816 15.3376C567.816 17.7376 585.116 23.1376 588.316 24.5376C590.016 25.2376 592.816 26.1376 594.516 26.4376C596.316 26.8376 598.016 27.6376 598.316 28.1376C598.716 28.6376 599.816 29.0376 601.016 29.0376C602.116 29.0376 604.216 29.6376 605.616 30.3376C607.116 31.1376 609.916 32.4376 611.816 33.2376C619.616 36.5376 622.916 38.0376 636.316 44.5376C644.016 48.3376 653.116 53.1376 656.616 55.2376C660.016 57.3376 663.116 59.0376 663.416 59.0376C663.716 59.0376 666.016 60.4376 668.516 62.0376C670.916 63.7376 673.116 65.0376 673.316 65.0376C673.616 65.0376 676.716 67.0376 680.416 69.5376C684.016 72.0376 687.116 74.0376 687.316 74.0376C689.216 74.0376 715.916 94.2376 727.016 104.038C727.916 104.838 731.116 107.538 734.216 110.038C749.516 122.538 776.616 152.238 797.516 179.538C801.916 185.338 817.816 208.938 817.816 209.738C817.816 210.038 818.416 211.138 819.216 211.938C821.916 215.038 841.016 252.238 846.016 264.038C848.916 271.138 850.116 273.838 851.416 276.338C852.216 277.938 852.816 279.938 852.816 280.938C852.816 281.838 853.516 283.538 854.316 284.638C855.116 285.638 855.816 287.338 855.816 288.238C855.816 289.238 856.416 291.438 857.216 293.238C858.016 295.038 860.116 301.238 861.816 307.038C863.616 312.838 865.416 318.638 865.916 320.038C866.316 321.438 867.616 326.638 868.816 331.538C869.916 336.538 871.216 342.138 871.816 344.038C872.916 348.138 875.116 359.838 877.316 373.038C883.516 411.438 883.516 471.838 877.316 510.538C876.516 515.538 875.716 521.138 875.416 523.038C874.516 528.538 869.816 549.638 867.316 558.538C866.416 561.838 865.316 566.238 864.716 568.338C864.216 570.438 863.416 572.838 862.916 573.838C862.516 574.738 861.316 578.038 860.416 581.038C859.516 584.038 858.116 588.138 857.316 590.038C856.616 591.938 854.616 597.338 852.816 602.038C840.016 636.138 817.816 676.238 794.416 707.538C779.616 727.338 756.216 753.038 738.316 769.138C727.716 778.638 724.416 781.538 721.716 783.538C720.216 784.638 714.616 788.938 709.216 793.138C689.016 808.538 669.116 821.338 649.816 831.338C643.516 834.538 637.216 837.838 635.816 838.538C630.716 841.238 616.016 847.938 607.316 851.538C602.416 853.538 596.816 855.838 595.016 856.638C593.216 857.438 590.916 858.038 590.016 858.038C589.016 858.038 587.816 858.438 587.316 858.938C586.716 859.538 584.516 860.338 582.316 860.938C580.116 861.438 577.016 862.338 575.316 862.838C573.716 863.438 569.616 864.638 566.316 865.638C563.016 866.538 558.616 867.938 556.516 868.638C554.516 869.438 551.816 870.038 550.716 870.038C549.516 870.038 546.516 870.738 543.916 871.538C535.016 874.338 511.516 878.338 491.816 880.538C475.316 882.238 435.716 883.038 411.316 882.038ZM473.316 832.538C481.616 831.638 491.716 830.338 495.816 829.538C500.016 828.738 504.616 828.038 506.216 828.038C507.716 828.038 512.016 827.338 515.616 826.438C528.416 823.438 531.316 822.838 535.316 821.938C537.516 821.438 542.516 820.138 546.316 819.038C550.216 817.838 554.716 816.538 556.316 816.038C559.316 815.238 562.816 814.038 570.116 811.438C579.116 808.138 582.516 806.838 585.116 805.438C586.716 804.638 588.416 804.038 588.916 804.038C590.816 804.038 617.716 791.038 629.316 784.538C632.616 782.638 636.216 780.638 637.316 780.038C638.416 779.438 640.716 778.138 642.316 777.038C644.016 775.938 646.016 774.738 646.816 774.338C648.216 773.638 652.916 770.538 667.316 760.538C696.616 740.338 729.316 708.238 755.416 674.138C761.016 666.738 771.816 651.338 771.816 650.738C771.816 650.438 773.516 647.638 775.716 644.438C782.016 634.838 800.816 598.638 800.816 596.138C800.816 595.638 802.216 592.538 803.816 589.238C805.516 585.838 806.816 582.738 806.816 582.238C806.816 581.738 807.916 578.838 809.216 575.838C810.616 572.738 812.016 568.538 812.416 566.438C812.716 564.238 813.416 562.138 813.816 561.538C814.216 561.038 815.216 558.038 816.116 555.038C817.016 552.038 818.616 546.438 819.716 542.538C820.816 538.738 822.216 533.538 822.716 531.038C823.216 528.538 824.416 523.438 825.216 519.538C832.816 485.338 835.016 440.438 830.816 401.038C829.816 390.838 828.416 380.338 827.816 377.538C827.216 374.838 825.916 368.238 824.816 363.038C820.316 341.538 818.116 333.538 809.816 309.538C804.416 294.038 786.216 255.938 778.016 242.838C777.116 241.438 773.916 236.238 770.916 231.338C753.916 203.638 715.416 159.938 690.316 139.938C680.816 132.438 665.616 121.738 660.316 119.038C659.216 118.438 657.016 117.138 655.316 116.138C649.416 112.338 629.316 102.738 620.816 99.5376C618.316 98.6376 615.016 97.2376 613.516 96.4376C611.916 95.6376 609.816 95.0376 608.816 95.0376C607.716 95.0376 605.416 94.4376 603.616 93.6376C598.716 91.6376 593.716 89.9376 589.816 89.0376C587.916 88.5376 583.216 87.2376 579.316 86.0376C575.516 84.9376 570.316 83.6376 567.816 83.1376C565.316 82.6376 561.316 81.8376 558.816 81.2376C529.916 74.4376 488.916 73.2376 467.616 78.6376C464.416 79.3376 460.916 80.0376 459.716 80.0376C457.616 80.0376 449.616 82.0376 443.316 84.2376C441.716 84.7376 439.016 85.5376 437.316 86.0376C433.216 87.1376 425.116 90.3376 419.216 93.0376C403.316 100.338 397.916 103.338 373.016 118.538C346.516 134.738 319.116 160.738 297.716 190.038C284.116 208.538 281.616 212.738 272.716 231.038C269.916 236.838 267.316 242.238 266.816 243.138C266.416 243.938 264.616 248.238 262.916 252.638C261.116 256.938 259.116 261.838 258.316 263.338C257.516 264.938 256.816 267.338 256.816 268.738V271.238L260.116 268.538C261.816 267.038 265.816 263.438 268.816 260.638C277.416 252.538 292.216 241.138 304.816 232.838C324.816 219.638 339.016 212.538 357.716 206.438C373.616 201.238 373.716 201.238 398.816 196.038C409.516 193.838 436.416 192.938 457.916 193.938C469.216 194.538 479.116 195.238 479.916 195.538C480.716 195.838 484.716 196.738 488.816 197.438C492.916 198.238 499.016 199.538 502.316 200.338C505.616 201.238 510.316 202.338 512.816 202.938C515.316 203.538 518.216 204.438 519.316 204.938C520.416 205.438 523.616 206.638 526.316 207.538C535.716 210.838 552.616 218.738 565.316 225.838C610.216 251.038 648.016 293.038 669.316 341.538C670.016 343.238 671.116 345.638 671.716 347.038C672.316 348.438 674.816 355.638 677.116 363.038C681.216 375.638 682.416 380.538 686.316 400.038C687.116 404.138 688.216 415.438 688.716 425.038C691.116 470.638 684.016 512.738 667.616 549.038C656.016 574.838 640.016 598.038 619.416 618.638C607.016 631.038 593.916 642.438 587.316 646.638C585.716 647.638 584.116 648.738 583.816 649.038C580.316 652.738 548.916 669.938 534.316 676.038C533.216 676.538 530.216 677.838 527.616 678.938C525.016 680.138 522.516 681.038 522.016 681.038C521.516 681.038 519.716 681.738 518.216 682.538C516.616 683.338 514.616 684.038 513.816 684.038C512.916 684.038 511.816 684.438 511.316 684.938C510.716 685.338 508.316 686.338 505.816 686.938C503.316 687.638 499.116 688.838 496.316 689.538C482.716 693.238 474.816 695.238 470.316 696.138C453.116 699.438 443.016 700.738 418.816 703.138C399.016 705.038 348.516 703.438 325.316 700.038C315.716 698.638 281.016 691.838 271.816 689.538C268.216 688.738 263.516 687.538 261.216 687.038C259.016 686.538 256.116 685.738 254.716 685.138C253.416 684.638 248.916 683.138 244.816 681.938C240.716 680.738 236.916 679.438 236.316 679.038C235.816 678.638 233.716 677.938 231.816 677.538C229.916 677.138 227.916 676.438 227.316 676.138C226.816 675.738 224.116 674.538 221.316 673.538C204.916 667.638 166.416 647.938 156.216 640.138C155.016 639.238 153.016 637.838 151.816 637.038C146.016 633.138 127.616 619.138 118.016 611.138C105.816 601.038 88.6161 583.538 79.8161 572.238C72.2161 562.438 65.3161 554.938 66.3161 557.538C66.7161 558.638 67.5161 561.338 68.1161 563.538C68.6161 565.738 70.2161 569.938 71.4161 572.838C72.7161 575.738 73.8161 578.538 73.8161 579.138C73.8161 579.638 74.8161 582.238 75.9161 584.838C77.1161 587.438 79.6161 593.038 81.4161 597.338C84.9161 605.538 92.9161 621.138 101.516 636.538C120.716 670.938 146.716 702.938 180.816 734.138C196.116 748.138 225.816 769.838 239.316 777.038C240.416 777.638 242.716 778.938 244.316 780.038C251.016 784.238 273.816 796.138 281.016 799.138C283.916 800.338 287.816 801.838 289.616 802.638C297.116 805.938 299.516 806.838 303.316 808.238C310.116 810.738 314.216 812.138 317.316 813.038C321.216 814.138 326.416 815.938 330.616 817.638C332.416 818.438 335.016 819.038 336.416 819.038C337.816 819.038 339.916 819.538 341.116 820.238C342.316 820.838 345.316 821.738 347.816 822.138C350.316 822.538 354.116 823.338 356.316 823.938C360.616 825.038 370.316 826.938 383.816 829.438C388.516 830.338 394.616 831.038 397.316 831.138C400.116 831.138 406.116 831.838 410.816 832.538C422.916 834.338 455.416 834.338 473.316 832.538ZM290.816 643.638C290.816 643.338 288.316 642.038 285.216 640.638C282.116 639.238 277.816 636.638 275.516 634.838C273.216 633.038 270.916 631.238 270.316 630.838C254.916 619.738 229.616 595.038 210.916 573.238C200.016 560.438 184.816 540.738 175.516 527.638C172.116 522.738 168.016 516.938 166.416 514.638C154.816 498.238 135.316 463.138 127.816 445.038C121.316 429.438 116.116 413.638 113.316 401.038C106.016 367.938 105.116 360.838 104.116 329.038C103.316 301.538 105.816 275.438 112.316 241.538C114.116 232.038 115.716 226.138 116.916 223.938C119.316 219.438 116.616 222.738 110.616 231.838C89.9161 262.538 72.8161 299.938 65.4161 330.038C61.7161 345.538 60.9161 350.838 59.3161 369.538C58.1161 384.038 58.1161 388.838 59.3161 402.538C60.0161 411.338 61.2161 421.038 61.8161 424.038C62.4161 427.038 63.6161 432.938 64.5161 437.038C65.3161 441.138 66.6161 446.038 67.4161 447.838C68.2161 449.638 68.8161 451.738 68.8161 452.438C68.8161 453.238 69.5161 455.138 70.3161 456.638C71.1161 458.238 71.8161 460.338 71.8161 461.338C71.8161 462.238 72.2161 463.838 72.8161 464.838C73.3161 465.738 74.4161 468.338 75.3161 470.538C78.7161 478.838 89.4161 499.938 95.2161 509.538C110.316 534.938 137.416 565.938 158.316 581.738C161.116 583.738 163.916 586.038 164.616 586.738C169.416 591.438 189.016 604.838 199.816 610.838C209.016 615.938 228.616 625.438 236.316 628.638C238.016 629.238 241.016 630.538 243.116 631.438C245.216 632.338 247.616 633.038 248.616 633.038C249.516 633.038 251.216 633.738 252.216 634.538C253.316 635.338 255.016 636.038 256.116 636.038C257.216 636.038 260.316 636.738 263.216 637.638C272.416 640.538 274.216 640.938 281.216 641.938C284.916 642.438 288.316 643.138 288.616 643.438C289.216 644.138 290.816 644.238 290.816 643.638ZM466.616 639.438C472.316 638.638 477.816 637.538 478.816 637.038C479.816 636.438 481.916 636.038 483.516 636.038C486.316 636.038 493.516 634.038 499.616 631.438C501.416 630.638 503.516 630.038 504.316 630.038C505.116 630.038 507.416 629.338 509.516 628.438C511.616 627.538 514.816 626.238 516.616 625.438C522.416 623.038 527.316 620.838 528.816 619.938C529.616 619.538 532.616 617.938 535.316 616.538C550.316 608.738 564.516 598.138 579.516 583.738C596.316 567.538 608.316 551.138 620.416 528.038C624.816 519.538 630.416 504.438 633.416 493.238C634.116 490.438 635.416 485.438 636.316 482.238C638.316 474.738 640.816 452.738 640.816 442.238C640.816 431.938 639.316 416.938 637.216 407.038C633.416 389.238 630.916 379.938 628.716 375.838C628.216 374.838 627.816 373.538 627.816 373.038C627.816 371.138 619.816 354.138 614.516 344.538C610.016 336.538 600.616 322.838 594.916 316.038C579.716 298.038 558.516 279.938 541.316 270.238C533.416 265.838 514.916 257.038 513.416 257.038C512.616 257.038 511.716 256.638 511.316 256.138C511.016 255.638 509.316 254.838 507.516 254.438C505.816 254.138 503.016 253.238 501.316 252.538C494.816 249.738 479.716 246.038 466.316 243.838C455.816 242.138 426.716 242.138 415.316 243.938C410.416 244.638 402.016 246.438 396.816 247.738C391.616 249.038 385.516 250.638 383.316 251.138C381.216 251.738 378.916 252.538 378.316 252.938C377.816 253.438 376.216 254.038 374.816 254.338C368.716 255.638 355.616 261.438 343.316 268.338C322.616 279.838 299.016 300.438 282.916 320.938C271.816 335.138 258.316 359.238 253.816 373.038C253.316 374.438 252.016 378.038 250.916 381.038C249.716 384.038 247.916 390.338 246.716 395.038C245.616 399.738 244.316 405.138 243.816 407.038C243.216 408.938 242.316 417.638 241.616 426.338C240.316 443.538 241.516 467.038 244.216 478.038C246.916 489.038 248.716 494.938 249.716 496.938C250.316 498.038 250.816 499.638 250.816 500.538C250.816 501.438 251.416 503.638 252.216 505.338C252.916 507.138 254.116 510.138 254.816 512.038C259.616 525.138 272.516 548.638 281.616 560.538C300.216 584.938 326.716 607.038 352.316 619.438C357.816 622.138 363.116 624.638 364.016 625.138C366.416 626.338 373.616 628.938 377.316 630.038C379.016 630.438 381.716 631.338 383.316 631.838C392.516 635.038 408.616 638.638 417.816 639.638C421.416 640.038 427.016 640.638 430.316 641.138C437.816 642.038 453.116 641.338 466.616 639.438ZM190.716 452.538C190.316 447.638 189.516 431.538 188.816 416.838C187.616 390.038 188.416 358.838 190.916 340.538C191.416 336.738 192.316 329.738 192.816 325.038C193.316 320.338 194.216 314.738 194.716 312.538C195.316 310.338 196.416 304.938 197.316 300.538C198.816 293.338 200.116 287.638 203.916 273.038C204.516 270.538 205.616 266.938 206.316 265.038C207.016 263.138 208.316 259.038 209.216 256.038C210.216 253.038 211.716 248.738 212.516 246.538C213.316 244.338 214.416 241.638 214.816 240.538C221.216 223.138 235.716 192.138 240.816 185.038C241.916 183.538 242.816 181.938 242.816 181.638C242.816 180.838 256.116 161.938 263.216 152.538C279.416 131.338 299.516 111.838 325.416 92.3376C336.616 83.9376 346.516 77.0376 347.216 77.0376C347.416 77.0376 350.016 75.4376 352.916 73.4376C355.916 71.4376 359.716 69.1376 361.316 68.3376C363.016 67.5376 367.016 65.4376 370.316 63.5376C373.616 61.6376 378.716 58.9376 381.516 57.5376C390.316 53.1376 389.116 51.6376 379.416 54.5376C376.716 55.3376 372.916 56.0376 371.016 56.0376C369.016 56.0376 364.716 56.7376 361.416 57.6376C358.016 58.4376 352.616 59.8376 349.316 60.6376C339.116 63.2376 332.416 65.2376 329.016 66.6376C327.216 67.4376 325.116 68.0376 324.316 68.0376C323.516 68.0376 321.416 68.6376 319.616 69.4376C317.816 70.2376 314.316 71.6376 311.816 72.5376C306.416 74.5376 303.416 75.8376 294.816 79.8376C291.216 81.4376 287.616 83.1376 286.816 83.4376C281.516 85.7376 262.116 97.6376 258.316 101.038C256.716 102.438 251.716 106.338 247.316 109.638C229.116 123.038 205.316 150.038 190.216 174.138C184.516 183.338 172.716 205.538 171.516 209.538C171.216 210.638 170.216 213.338 169.316 215.538C167.816 219.338 165.716 225.838 162.116 238.038C161.216 241.038 160.216 244.638 159.716 246.038C158.916 248.538 157.916 253.538 155.216 268.538C153.416 278.438 153.316 279.138 151.216 302.638C149.516 320.638 149.516 322.638 151.216 339.138C153.116 358.138 156.716 379.938 159.616 389.038C160.216 390.938 161.416 395.238 162.316 398.538C163.216 401.838 164.616 406.238 165.316 408.338C166.116 410.338 167.516 413.938 168.416 416.338C171.616 424.338 190.716 462.538 191.316 461.838C191.416 461.638 191.116 457.538 190.716 452.538Z" fill="black"/>
<path d="M1220.22 771.037C1213.52 770.637 1205.82 769.837 1203.22 769.237C1200.52 768.637 1196.12 767.837 1193.32 767.537C1186.12 766.637 1177.92 764.537 1159.82 758.937C1150.62 756.037 1147.02 754.737 1138.32 751.037C1091.12 731.037 1047.02 694.737 1019.42 653.137C1015.22 646.837 1000.82 621.437 1000.82 620.337C1000.82 620.237 999.416 617.037 997.716 613.337C993.116 603.037 993.016 602.837 991.516 598.537C983.616 575.837 981.616 568.437 978.816 553.537C975.116 532.837 974.816 529.437 974.816 501.837C974.816 473.337 975.016 470.937 980.216 444.037C981.816 435.737 986.316 418.637 987.716 415.537C988.216 414.437 989.216 411.737 990.116 409.537C997.316 390.337 1007.52 369.237 1013.72 360.237C1014.72 358.737 1017.72 354.137 1020.42 350.037C1047.62 308.037 1094.22 270.837 1143.32 251.637C1148.82 249.537 1154.72 247.137 1156.52 246.437C1158.22 245.637 1160.12 245.037 1160.82 245.037C1161.82 245.037 1167.52 243.437 1175.62 240.937C1177.52 240.337 1181.32 239.437 1184.12 239.037C1187.02 238.537 1193.62 237.437 1198.82 236.537C1224.72 232.137 1249.62 231.937 1284.72 235.937C1289.32 236.537 1295.22 237.437 1297.72 237.937C1311.42 241.137 1315.92 242.237 1322.32 244.137C1326.22 245.237 1330.72 246.837 1332.52 247.637C1334.22 248.437 1336.12 249.037 1336.72 249.037C1337.32 249.037 1338.62 249.437 1339.62 250.037C1341.32 250.937 1350.82 255.337 1362.82 260.637C1366.32 262.237 1371.52 264.637 1374.42 266.137L1379.52 268.637L1380.22 260.637C1380.52 256.137 1380.82 205.437 1380.82 147.837C1380.82 65.2371 1381.12 42.9371 1382.12 42.3371C1383.42 41.4371 1507.02 40.6371 1510.62 41.5371L1512.82 42.0371V279.137C1512.82 531.237 1512.92 523.837 1508.22 551.537C1502.82 583.037 1491.32 614.037 1474.42 642.537C1452.22 679.837 1420.92 710.837 1380.62 735.237C1372.92 739.937 1352.52 750.037 1350.82 750.037C1350.32 750.037 1347.12 751.337 1343.62 752.837C1337.02 755.837 1321.62 760.837 1311.32 763.437C1308.02 764.237 1303.42 765.337 1301.12 765.937C1298.82 766.537 1293.92 767.537 1290.12 768.037C1286.42 768.637 1280.62 769.437 1277.32 770.037C1268.72 771.337 1234.52 772.037 1220.22 771.037ZM1258.92 639.537C1264.12 638.837 1269.72 637.737 1271.32 637.137C1273.02 636.637 1277.22 635.237 1280.82 634.137C1291.82 630.737 1295.22 629.337 1304.42 624.437C1319.42 616.537 1326.82 611.037 1339.82 598.037C1350.02 587.837 1353.52 583.537 1358.92 574.537C1369.52 556.937 1374.02 545.937 1378.42 527.537C1380.82 517.337 1380.82 487.937 1378.42 479.037C1377.52 475.437 1376.02 469.837 1375.12 466.537C1374.32 463.237 1372.92 459.137 1372.22 457.337C1371.42 455.637 1370.82 453.937 1370.82 453.637C1370.82 452.437 1365.22 441.137 1361.12 434.237C1349.22 413.937 1331.72 396.437 1311.52 384.737C1300.32 378.137 1288.42 372.737 1281.72 371.037C1259.72 365.337 1254.52 364.737 1237.32 365.337C1223.32 365.937 1219.62 366.537 1201.82 371.037C1196.42 372.337 1181.02 379.737 1171.92 385.237C1149.52 398.837 1129.42 421.237 1118.02 445.037C1113.72 454.137 1107.82 471.037 1107.82 474.437C1107.82 475.637 1107.12 479.037 1106.32 482.037C1104.22 489.637 1104.22 515.037 1106.22 525.037C1112.12 553.637 1124.32 577.137 1143.82 597.437C1151.42 605.437 1166.52 618.037 1168.42 618.037C1168.82 618.037 1169.92 618.637 1170.72 619.437C1173.02 621.537 1189.82 630.037 1191.72 630.037C1192.62 630.037 1194.22 630.737 1195.22 631.537C1196.32 632.337 1198.12 633.037 1199.22 633.037C1200.42 633.037 1202.22 633.737 1203.22 634.537C1204.32 635.337 1206.32 636.037 1207.62 636.037C1208.92 636.037 1212.12 636.737 1214.72 637.537C1225.12 640.837 1244.72 641.737 1258.92 639.537Z" fill="black"/>
<path d="M1791.62 771.038C1785.22 770.638 1777.72 769.838 1775.12 769.238C1772.52 768.638 1767.82 767.938 1764.82 767.538C1761.82 767.238 1758.02 766.538 1756.32 766.038C1754.72 765.538 1750.42 764.438 1746.82 763.538C1736.92 760.938 1720.82 755.938 1715.82 753.838C1713.32 752.738 1710.42 751.538 1709.32 751.138C1702.62 748.438 1685.82 739.838 1676.62 734.338C1649.92 718.438 1623.12 695.538 1604.32 672.538C1589.22 654.138 1573.42 626.638 1563.82 602.038C1562.62 599.038 1561.22 595.638 1560.82 594.538C1555.52 581.838 1549.82 558.138 1547.12 537.038C1544.32 514.838 1545.82 462.438 1549.62 450.538C1550.22 448.938 1551.32 443.938 1552.32 439.538C1554.22 430.038 1558.02 416.738 1560.82 409.538C1561.22 408.438 1562.32 405.538 1563.32 403.038C1564.22 400.538 1565.72 396.938 1566.52 395.038C1567.32 393.138 1568.72 389.938 1569.52 388.038C1571.32 383.838 1577.52 371.738 1579.92 367.538C1580.92 365.938 1583.52 361.338 1585.72 357.438C1587.92 353.538 1590.32 349.838 1591.22 349.138C1592.02 348.438 1594.42 345.338 1596.42 342.238C1610.02 321.538 1633.92 298.638 1662.32 278.838C1676.12 269.238 1704.22 254.838 1719.32 249.538C1722.12 248.638 1725.22 247.438 1726.32 247.038C1727.42 246.538 1731.72 245.238 1735.82 244.038C1739.92 242.938 1744.92 241.538 1746.82 240.938C1748.72 240.438 1752.62 239.538 1755.32 239.038C1758.12 238.638 1763.22 237.738 1766.82 237.138C1770.42 236.538 1776.52 235.438 1780.32 234.738C1790.02 233.038 1835.52 233.138 1847.82 234.838C1876.52 238.938 1898.02 244.638 1917.82 253.338C1934.22 260.538 1941.12 263.838 1946.12 266.838C1948.32 268.138 1950.32 268.838 1950.62 268.538C1951.02 268.138 1951.22 217.338 1951.12 155.438C1950.82 43.6381 1950.82 43.0381 1952.92 42.0381C1955.32 40.7381 2081.22 41.0381 2082.52 42.3381C2082.92 42.8381 2083.22 152.438 2083.12 285.838C2083.02 502.838 2082.82 529.738 2081.42 540.038C2080.52 546.338 2079.32 553.138 2078.82 555.038C2078.32 556.938 2077.22 562.138 2076.22 566.538C2075.32 570.938 2073.22 578.838 2071.62 584.038C2068.72 593.238 2068.02 595.238 2064.42 603.338C2063.52 605.438 2062.82 607.538 2062.82 608.138C2062.82 609.638 2053.92 627.638 2049.62 634.838C2047.52 638.238 2045.82 641.238 2045.82 641.538C2045.82 642.738 2030.22 664.738 2023.12 673.538C2011.12 688.538 1985.52 712.738 1972.82 721.038C1971.62 721.838 1968.72 723.938 1966.42 725.638C1964.22 727.338 1960.12 729.938 1957.32 731.438C1954.62 733.038 1951.62 734.838 1950.82 735.438C1950.02 736.138 1947.42 737.638 1945.12 738.838C1942.82 739.938 1940.12 741.338 1939.12 741.938C1936.92 743.138 1922.12 749.938 1919.32 751.138C1910.62 754.638 1900.82 758.138 1897.82 758.738C1896.42 759.038 1894.92 759.638 1894.32 760.038C1893.82 760.438 1891.72 761.138 1889.82 761.538C1887.92 761.938 1884.32 762.838 1881.82 763.538C1875.72 765.438 1868.02 767.038 1860.52 768.138C1857.12 768.638 1851.62 769.438 1848.32 770.038C1839.62 771.338 1805.32 772.038 1791.62 771.038ZM1829.52 639.638C1834.62 638.838 1840.22 637.738 1842.02 637.238C1843.82 636.638 1848.02 635.438 1851.32 634.438C1864.32 630.438 1879.12 623.238 1891.62 614.738C1907.32 603.938 1925.22 584.038 1933.62 568.238C1935.52 564.538 1937.42 561.138 1937.82 560.538C1938.72 559.238 1944.42 544.438 1945.62 540.038C1950.32 523.338 1952.12 507.338 1950.82 493.938C1949.42 480.938 1945.12 461.738 1942.82 458.538C1942.42 458.038 1941.82 456.238 1941.42 454.538C1939.72 447.738 1930.12 430.338 1922.22 420.038C1915.32 410.938 1897.82 394.738 1888.72 388.938C1884.12 385.938 1879.42 382.938 1878.32 382.238C1877.22 381.638 1875.42 380.638 1874.32 380.138C1873.22 379.638 1870.22 378.338 1867.82 377.238C1858.22 372.938 1853.52 371.038 1852.12 371.038C1851.22 371.038 1848.52 370.338 1845.92 369.538C1835.62 366.338 1828.92 365.538 1812.32 365.538C1795.42 365.638 1791.32 366.138 1774.82 370.538C1768.62 372.238 1768.42 372.238 1756.82 377.938C1743.22 384.438 1734.82 389.638 1727.72 395.638C1694.62 423.938 1677.82 456.338 1675.12 497.238C1674.22 510.938 1677.52 531.838 1682.92 547.038C1684.72 552.038 1691.82 567.038 1693.92 570.038C1694.82 571.438 1697.82 575.938 1700.42 580.038C1709.12 593.438 1729.52 612.338 1745.02 621.538C1748.62 623.738 1761.52 629.938 1765.32 631.338C1767.52 632.138 1771.12 633.438 1773.32 634.338C1780.02 636.838 1785.92 638.038 1795.32 639.138C1800.32 639.638 1804.82 640.238 1805.32 640.438C1807.62 641.438 1821.02 640.938 1829.52 639.638Z" fill="black"/>
<path d="M2116.92 759.638C2115.32 757.738 2115.32 493.938 2116.82 478.538C2119.02 457.838 2121.82 441.538 2125.22 430.038C2126.02 427.538 2127.42 422.838 2128.32 419.538C2129.32 416.238 2130.72 412.138 2131.52 410.338C2132.22 408.638 2132.82 406.838 2132.82 406.238C2132.82 404.038 2145.02 377.838 2151.02 367.038C2166.52 339.338 2189.22 313.338 2217.42 290.838C2239.52 273.138 2257.72 262.938 2290.32 249.538C2293.02 248.438 2301.42 245.838 2315.52 241.538C2318.42 240.738 2323.32 239.638 2326.52 239.138C2332.32 238.238 2339.22 237.038 2352.32 234.738C2362.02 233.038 2406.52 233.138 2418.82 234.838C2432.22 236.738 2445.82 239.238 2451.82 240.938C2453.72 241.538 2458.72 242.938 2462.82 244.038C2466.92 245.238 2471.02 246.538 2471.82 246.938C2472.72 247.438 2474.82 248.138 2476.62 248.438C2478.32 248.838 2480.02 249.638 2480.32 250.138C2480.72 250.638 2481.62 251.038 2482.42 251.038C2483.22 251.038 2486.02 251.938 2488.62 253.138C2491.22 254.238 2494.92 255.838 2496.82 256.738C2509.82 262.338 2539.22 279.238 2542.82 283.038C2543.12 283.338 2548.02 287.238 2553.82 291.538C2582.32 313.238 2611.42 349.538 2628.62 385.238C2630.92 390.038 2632.82 394.238 2632.82 394.638C2632.82 394.938 2633.52 396.838 2634.42 398.838C2635.32 400.938 2636.62 404.038 2637.42 405.838C2638.22 407.638 2638.82 409.738 2638.82 410.538C2638.82 411.238 2639.42 413.138 2640.22 414.738C2642.42 418.938 2646.92 435.538 2649.22 447.038C2649.92 451.138 2651.22 457.238 2651.92 460.538C2653.92 469.638 2654.92 755.538 2653.02 758.838L2651.72 761.138L2589.02 760.838C2554.52 760.638 2525.72 760.138 2525.12 759.738C2524.12 759.138 2523.82 731.338 2523.72 626.738C2523.72 554.038 2523.32 491.138 2522.82 487.038C2519.02 455.238 2506.02 429.038 2482.42 405.438C2468.12 391.238 2457.02 383.638 2438.82 375.738C2436.92 374.838 2433.72 373.438 2431.62 372.638C2429.62 371.738 2427.42 371.038 2426.72 371.038C2426.02 371.038 2423.62 370.438 2421.32 369.638C2411.32 366.138 2402.02 364.838 2386.22 364.838C2377.52 364.838 2367.82 365.438 2364.82 366.038C2344.32 370.438 2339.82 371.938 2325.32 379.138C2312.72 385.438 2296.92 397.138 2286.72 407.638C2273.42 421.538 2261.12 441.438 2256.02 457.538C2254.82 461.438 2253.32 465.938 2252.82 467.538C2252.32 469.238 2251.12 474.438 2250.12 479.038C2248.52 486.838 2248.42 499.338 2248.12 623.338L2247.82 759.138L2245.42 760.038C2244.02 760.538 2215.22 760.938 2180.52 761.038C2126.72 761.038 2117.92 760.838 2116.92 759.638Z" fill="black"/>
</svg>
