<svg width="2964" height="1246" viewBox="0 0 2964 1246" fill="none" xmlns="http://www.w3.org/2000/svg">
<path d="M568.5 1059C551.2 1058.3 543.6 1057.5 523 1054.4C503.7 1051.4 480.3 1045.8 462.5 1039.8C460.9 1039.3 458 1038.4 456.1 1038C454.3 1037.5 452.3 1036.7 451.7 1036.1C451.1 1035.5 449.7 1035 448.7 1035C447.7 1035 445.2 1034.3 443.2 1033.4C441.1 1032.5 438 1031.2 436.2 1030.4C434.4 1029.6 432.4 1029 431.9 1029C431 1029 409.1 1018.9 404 1016.1C403.2 1015.7 397.8 1012.8 392 1009.8C370.5 998.4 353.3 988.3 350 985C349.7 984.7 348.7 984.1 347.8 983.5C343.5 980.9 335.1 974.9 332 972.1C330.1 970.4 328.2 969 327.8 969C327 969 315.7 959.4 299.9 945.3C280.4 927.9 272.8 919.8 245.6 886.4C235.5 874 209.6 831.9 200.2 812.5C191.4 794.5 189.4 789.8 185.1 778.5C179.1 762.6 172.1 740.6 170.2 732C169.6 729.5 168.2 723.8 167.1 719.2C165.9 714.6 165 709.8 165 708.4C165 707 164.4 703.1 163.6 699.7C162.1 693.6 160.2 676.8 157.9 651.5C156.1 631 157.9 574.8 161 554.5C161.6 550.7 162.8 543 163.6 537.5C165.1 528 165.8 524.6 169.4 510.4C170.3 507.1 171 503.4 171 502.2C171 501 171.6 498.6 172.4 496.8C173.2 495 174.6 490.8 175.6 487.5C176.5 484.2 177.9 480.1 178.7 478.3C179.4 476.6 180 474.8 180 474.3C180 473.2 185.7 458 187 455.8C187.6 454.8 188 453.6 188 453C188 452.1 189.8 447.9 195.5 435.5C198.9 428 208.9 408.2 210.8 405C212 403.1 213.4 400.6 213.9 399.4C214.4 398.3 216.6 394.4 218.8 390.9C220.9 387.4 222.9 384.1 223.1 383.5C224.1 381.1 238 360.6 244.9 351.5C271.9 315.6 306.9 281.9 345 255C352.6 249.7 377.2 234.4 381 232.6C381.8 232.2 385.2 230.4 388.5 228.6C400.1 222.1 413.4 215.7 425 211C428 209.8 431.7 208.2 433.2 207.4C434.6 206.6 436.7 206 437.7 206C438.7 206 440 205.6 440.5 205.1C441.1 204.6 443.1 203.7 445 203.2C448.4 202.2 451.4 201.2 459 198.5C462.4 197.3 466.6 196 479.5 192.5C482.8 191.6 487.1 190.3 489 189.7C490.9 189.1 494.5 188.3 497 188C499.5 187.6 503.5 186.8 506 186.2C516.5 183.7 521.9 182.6 528 182C531.6 181.6 538.3 180.7 543 180.2C576.1 175.9 623.6 175.9 654.5 180.1C658.9 180.7 665.2 181.6 668.5 182C671.8 182.4 676.8 183.2 679.5 183.8C682.3 184.4 686.8 185.4 689.5 186C692.3 186.6 696.6 187.5 699.3 188C701.9 188.5 705.5 189.3 707.3 189.9C709 190.4 713 191.5 716 192.3C725 194.7 742.3 200.1 745.5 201.5C747.2 202.2 750 203.1 751.7 203.4C753.5 203.8 755.2 204.6 755.5 205.1C755.9 205.6 757 206 758.2 206C759.3 206 761.4 206.6 762.8 207.3C764.3 208.1 767.1 209.4 769 210.2C776.8 213.5 780.1 215 793.5 221.5C801.2 225.3 810.3 230.1 813.8 232.2C817.2 234.3 820.3 236 820.6 236C820.9 236 823.2 237.4 825.7 239C828.1 240.7 830.3 242 830.5 242C830.8 242 833.9 244 837.6 246.5C841.2 249 844.3 251 844.5 251C846.4 251 873.1 271.2 884.2 281C885.1 281.8 888.3 284.5 891.4 287C906.7 299.5 933.8 329.2 954.7 356.5C959.1 362.3 975 385.9 975 386.7C975 387 975.6 388.1 976.4 388.9C979.1 392 998.2 429.2 1003.2 441C1006.1 448.1 1007.3 450.8 1008.6 453.3C1009.4 454.9 1010 456.9 1010 457.9C1010 458.8 1010.7 460.5 1011.5 461.6C1012.3 462.6 1013 464.3 1013 465.2C1013 466.2 1013.6 468.4 1014.4 470.2C1015.2 472 1017.3 478.2 1019 484C1020.8 489.8 1022.6 495.6 1023.1 497C1023.5 498.4 1024.8 503.6 1026 508.5C1027.1 513.5 1028.4 519.1 1029 521C1030.1 525.1 1032.3 536.8 1034.5 550C1040.7 588.4 1040.7 648.8 1034.5 687.5C1033.7 692.5 1032.9 698.1 1032.6 700C1031.7 705.5 1027 726.6 1024.5 735.5C1023.6 738.8 1022.5 743.2 1021.9 745.3C1021.4 747.4 1020.6 749.8 1020.1 750.8C1019.7 751.7 1018.5 755 1017.6 758C1016.7 761 1015.3 765.1 1014.5 767C1013.8 768.9 1011.8 774.3 1010 779C997.2 813.1 975 853.2 951.6 884.5C936.8 904.3 913.4 930 895.5 946.1C884.9 955.6 881.6 958.5 878.9 960.5C877.4 961.6 871.8 965.9 866.4 970.1C846.2 985.5 826.3 998.3 807 1008.3C800.7 1011.5 794.4 1014.8 793 1015.5C787.9 1018.2 773.2 1024.9 764.5 1028.5C759.6 1030.5 754 1032.8 752.2 1033.6C750.4 1034.4 748.1 1035 747.2 1035C746.2 1035 745 1035.4 744.5 1035.9C743.9 1036.5 741.7 1037.3 739.5 1037.9C737.3 1038.4 734.2 1039.3 732.5 1039.8C730.9 1040.4 726.8 1041.6 723.5 1042.6C720.2 1043.5 715.8 1044.9 713.7 1045.6C711.7 1046.4 709 1047 707.9 1047C706.7 1047 703.7 1047.7 701.1 1048.5C692.2 1051.3 668.7 1055.3 649 1057.5C632.5 1059.2 592.9 1060 568.5 1059ZM630.5 1009.5C638.8 1008.6 648.9 1007.3 653 1006.5C657.2 1005.7 661.8 1005 663.4 1005C664.9 1005 669.2 1004.3 672.8 1003.4C685.6 1000.4 688.5 999.8 692.5 998.9C694.7 998.4 699.7 997.1 703.5 996C707.4 994.8 711.9 993.5 713.5 993C716.5 992.2 720 991 727.3 988.4C736.3 985.1 739.7 983.8 742.3 982.4C743.9 981.6 745.6 981 746.1 981C748 981 774.9 968 786.5 961.5C789.8 959.6 793.4 957.6 794.5 957C795.6 956.4 797.9 955.1 799.5 954C801.2 952.9 803.2 951.7 804 951.3C805.4 950.6 810.1 947.5 824.5 937.5C853.8 917.3 886.5 885.2 912.6 851.1C918.2 843.7 929 828.3 929 827.7C929 827.4 930.7 824.6 932.9 821.4C939.2 811.8 958 775.6 958 773.1C958 772.6 959.4 769.5 961 766.2C962.7 762.8 964 759.7 964 759.2C964 758.7 965.1 755.8 966.4 752.8C967.8 749.7 969.2 745.5 969.6 743.4C969.9 741.2 970.6 739.1 971 738.5C971.4 738 972.4 735 973.3 732C974.2 729 975.8 723.4 976.9 719.5C978 715.7 979.4 710.5 979.9 708C980.4 705.5 981.6 700.4 982.4 696.5C990 662.3 992.2 617.4 988 578C987 567.8 985.6 557.3 985 554.5C984.4 551.8 983.1 545.2 982 540C977.5 518.5 975.3 510.5 967 486.5C961.6 471 943.4 432.9 935.2 419.8C934.3 418.4 931.1 413.2 928.1 408.3C911.1 380.6 872.6 336.9 847.5 316.9C838 309.4 822.8 298.7 817.5 296C816.4 295.4 814.2 294.1 812.5 293.1C806.6 289.3 786.5 279.7 778 276.5C775.5 275.6 772.2 274.2 770.7 273.4C769.1 272.6 767 272 766 272C764.9 272 762.6 271.4 760.8 270.6C755.9 268.6 750.9 266.9 747 266C745.1 265.5 740.4 264.2 736.5 263C732.7 261.9 727.5 260.6 725 260.1C722.5 259.6 718.5 258.8 716 258.2C687.1 251.4 646.1 250.2 624.8 255.6C621.6 256.3 618.1 257 616.9 257C614.8 257 606.8 259 600.5 261.2C598.9 261.7 596.2 262.5 594.5 263C590.4 264.1 582.3 267.3 576.4 270C560.5 277.3 555.1 280.3 530.2 295.5C503.7 311.7 476.3 337.7 454.9 367C441.3 385.5 438.8 389.7 429.9 408C427.1 413.8 424.5 419.2 424 420.1C423.6 420.9 421.8 425.2 420.1 429.6C418.3 433.9 416.3 438.8 415.5 440.3C414.7 441.9 414 444.3 414 445.7V448.2L417.3 445.5C419 444 423 440.4 426 437.6C434.6 429.5 449.4 418.1 462 409.8C482 396.6 496.2 389.5 514.9 383.4C530.8 378.2 530.9 378.2 556 373C566.7 370.8 593.6 369.9 615.1 370.9C626.4 371.5 636.3 372.2 637.1 372.5C637.9 372.8 641.9 373.7 646 374.4C650.1 375.2 656.2 376.5 659.5 377.3C662.8 378.2 667.5 379.3 670 379.9C672.5 380.5 675.4 381.4 676.5 381.9C677.6 382.4 680.8 383.6 683.5 384.5C692.9 387.8 709.8 395.7 722.5 402.8C767.4 428 805.2 470 826.5 518.5C827.2 520.2 828.3 522.6 828.9 524C829.5 525.4 832 532.6 834.3 540C838.4 552.6 839.6 557.5 843.5 577C844.3 581.1 845.4 592.4 845.9 602C848.3 647.6 841.2 689.7 824.8 726C813.2 751.8 797.2 775 776.6 795.6C764.2 808 751.1 819.4 744.5 823.6C742.9 824.6 741.3 825.7 741 826C737.5 829.7 706.1 846.9 691.5 853C690.4 853.5 687.4 854.8 684.8 855.9C682.2 857.1 679.7 858 679.2 858C678.7 858 676.9 858.7 675.4 859.5C673.8 860.3 671.8 861 671 861C670.1 861 669 861.4 668.5 861.9C667.9 862.3 665.5 863.3 663 863.9C660.5 864.6 656.3 865.8 653.5 866.5C639.9 870.2 632 872.2 627.5 873.1C610.3 876.4 600.2 877.7 576 880.1C556.2 882 505.7 880.4 482.5 877C472.9 875.6 438.2 868.8 429 866.5C425.4 865.7 420.7 864.5 418.4 864C416.2 863.5 413.3 862.7 411.9 862.1C410.6 861.6 406.1 860.1 402 858.9C397.9 857.7 394.1 856.4 393.5 856C393 855.6 390.9 854.9 389 854.5C387.1 854.1 385.1 853.4 384.5 853.1C384 852.7 381.3 851.5 378.5 850.5C362.1 844.6 323.6 824.9 313.4 817.1C312.2 816.2 310.2 814.8 309 814C303.2 810.1 284.8 796.1 275.2 788.1C263 778 245.8 760.5 237 749.2C229.4 739.4 222.5 731.9 223.5 734.5C223.9 735.6 224.7 738.3 225.3 740.5C225.8 742.7 227.4 746.9 228.6 749.8C229.9 752.7 231 755.5 231 756.1C231 756.6 232 759.2 233.1 761.8C234.3 764.4 236.8 770 238.6 774.3C242.1 782.5 250.1 798.1 258.7 813.5C277.9 847.9 303.9 879.9 338 911.1C353.3 925.1 383 946.8 396.5 954C397.6 954.6 399.9 955.9 401.5 957C408.2 961.2 431 973.1 438.2 976.1C441.1 977.3 445 978.8 446.8 979.6C454.3 982.9 456.7 983.8 460.5 985.2C467.3 987.7 471.4 989.1 474.5 990C478.4 991.1 483.6 992.9 487.8 994.6C489.6 995.4 492.2 996 493.6 996C495 996 497.1 996.5 498.3 997.2C499.5 997.8 502.5 998.7 505 999.1C507.5 999.5 511.3 1000.3 513.5 1000.9C517.8 1002 527.5 1003.9 541 1006.4C545.7 1007.3 551.8 1008 554.5 1008.1C557.3 1008.1 563.3 1008.8 568 1009.5C580.1 1011.3 612.6 1011.3 630.5 1009.5ZM448 820.6C448 820.3 445.5 819 442.4 817.6C439.3 816.2 435 813.6 432.7 811.8C430.4 810 428.1 808.2 427.5 807.8C412.1 796.7 386.8 772 368.1 750.2C357.2 737.4 342 717.7 332.7 704.6C329.3 699.7 325.2 693.9 323.6 691.6C312 675.2 292.5 640.1 285 622C278.5 606.4 273.3 590.6 270.5 578C263.2 544.9 262.3 537.8 261.3 506C260.5 478.5 263 452.4 269.5 418.5C271.3 409 272.9 403.1 274.1 400.9C276.5 396.4 273.8 399.7 267.8 408.8C247.1 439.5 230 476.9 222.6 507C218.9 522.5 218.1 527.8 216.5 546.5C215.3 561 215.3 565.8 216.5 579.5C217.2 588.3 218.4 598 219 601C219.6 604 220.8 609.9 221.7 614C222.5 618.1 223.8 623 224.6 624.8C225.4 626.6 226 628.7 226 629.4C226 630.2 226.7 632.1 227.5 633.6C228.3 635.2 229 637.3 229 638.3C229 639.2 229.4 640.8 230 641.8C230.5 642.7 231.6 645.3 232.5 647.5C235.9 655.8 246.6 676.9 252.4 686.5C267.5 711.9 294.6 742.9 315.5 758.7C318.3 760.7 321.1 763 321.8 763.7C326.6 768.4 346.2 781.8 357 787.8C366.2 792.9 385.8 802.4 393.5 805.6C395.2 806.2 398.2 807.5 400.3 808.4C402.4 809.3 404.8 810 405.8 810C406.7 810 408.4 810.7 409.4 811.5C410.5 812.3 412.2 813 413.3 813C414.4 813 417.5 813.7 420.4 814.6C429.6 817.5 431.4 817.9 438.4 818.9C442.1 819.4 445.5 820.1 445.8 820.4C446.4 821.1 448 821.2 448 820.6ZM623.8 816.4C629.5 815.6 635 814.5 636 814C637 813.4 639.1 813 640.7 813C643.5 813 650.7 811 656.8 808.4C658.6 807.6 660.7 807 661.5 807C662.3 807 664.6 806.3 666.7 805.4C668.8 804.5 672 803.2 673.8 802.4C679.6 800 684.5 797.8 686 796.9C686.8 796.5 689.8 794.9 692.5 793.5C707.5 785.7 721.7 775.1 736.7 760.7C753.5 744.5 765.5 728.1 777.6 705C782 696.5 787.6 681.4 790.6 670.2C791.3 667.4 792.6 662.4 793.5 659.2C795.5 651.7 798 629.7 798 619.2C798 608.9 796.5 593.9 794.4 584C790.6 566.2 788.1 556.9 785.9 552.8C785.4 551.8 785 550.5 785 550C785 548.1 777 531.1 771.7 521.5C767.2 513.5 757.8 499.8 752.1 493C736.9 475 715.7 456.9 698.5 447.2C690.6 442.8 672.1 434 670.6 434C669.8 434 668.9 433.6 668.5 433.1C668.2 432.6 666.5 431.8 664.7 431.4C663 431.1 660.2 430.2 658.5 429.5C652 426.7 636.9 423 623.5 420.8C613 419.1 583.9 419.1 572.5 420.9C567.6 421.6 559.2 423.4 554 424.7C548.8 426 542.7 427.6 540.5 428.1C538.4 428.7 536.1 429.5 535.5 429.9C535 430.4 533.4 431 532 431.3C525.9 432.6 512.8 438.4 500.5 445.3C479.8 456.8 456.2 477.4 440.1 497.9C429 512.1 415.5 536.2 411 550C410.5 551.4 409.2 555 408.1 558C406.9 561 405.1 567.3 403.9 572C402.8 576.7 401.5 582.1 401 584C400.4 585.9 399.5 594.6 398.8 603.3C397.5 620.5 398.7 644 401.4 655C404.1 666 405.9 671.9 406.9 673.9C407.5 675 408 676.6 408 677.5C408 678.4 408.6 680.6 409.4 682.3C410.1 684.1 411.3 687.1 412 689C416.8 702.1 429.7 725.6 438.8 737.5C457.4 761.9 483.9 784 509.5 796.4C515 799.1 520.3 801.6 521.2 802.1C523.6 803.3 530.8 805.9 534.5 807C536.2 807.4 538.9 808.3 540.5 808.8C549.7 812 565.8 815.6 575 816.6C578.6 817 584.2 817.6 587.5 818.1C595 819 610.3 818.3 623.8 816.4ZM347.9 629.5C347.5 624.6 346.7 608.5 346 593.8C344.8 567 345.6 535.8 348.1 517.5C348.6 513.7 349.5 506.7 350 502C350.5 497.3 351.4 491.7 351.9 489.5C352.5 487.3 353.6 481.9 354.5 477.5C356 470.3 357.3 464.6 361.1 450C361.7 447.5 362.8 443.9 363.5 442C364.2 440.1 365.5 436 366.4 433C367.4 430 368.9 425.7 369.7 423.5C370.5 421.3 371.6 418.6 372 417.5C378.4 400.1 392.9 369.1 398 362C399.1 360.5 400 358.9 400 358.6C400 357.8 413.3 338.9 420.4 329.5C436.6 308.3 456.7 288.8 482.6 269.3C493.8 260.9 503.7 254 504.4 254C504.6 254 507.2 252.4 510.1 250.4C513.1 248.4 516.9 246.1 518.5 245.3C520.2 244.5 524.2 242.4 527.5 240.5C530.8 238.6 535.9 235.9 538.7 234.5C547.5 230.1 546.3 228.6 536.6 231.5C533.9 232.3 530.1 233 528.2 233C526.2 233 521.9 233.7 518.6 234.6C515.2 235.4 509.8 236.8 506.5 237.6C496.3 240.2 489.6 242.2 486.2 243.6C484.4 244.4 482.3 245 481.5 245C480.7 245 478.6 245.6 476.8 246.4C475 247.2 471.5 248.6 469 249.5C463.6 251.5 460.6 252.8 452 256.8C448.4 258.4 444.8 260.1 444 260.4C438.7 262.7 419.3 274.6 415.5 278C413.9 279.4 408.9 283.3 404.5 286.6C386.3 300 362.5 327 347.4 351.1C341.7 360.3 329.9 382.5 328.7 386.5C328.4 387.6 327.4 390.3 326.5 392.5C325 396.3 322.9 402.8 319.3 415C318.4 418 317.4 421.6 316.9 423C316.1 425.5 315.1 430.5 312.4 445.5C310.6 455.4 310.5 456.1 308.4 479.6C306.7 497.6 306.7 499.6 308.4 516.1C310.3 535.1 313.9 556.9 316.8 566C317.4 567.9 318.6 572.2 319.5 575.5C320.4 578.8 321.8 583.2 322.5 585.3C323.3 587.3 324.7 590.9 325.6 593.3C328.8 601.3 347.9 639.5 348.5 638.8C348.6 638.6 348.3 634.5 347.9 629.5Z" fill="white"/>
<path d="M1377.4 948C1370.7 947.6 1363 946.8 1360.4 946.2C1357.7 945.6 1353.3 944.8 1350.5 944.5C1343.3 943.6 1335.1 941.5 1317 935.9C1307.8 933 1304.2 931.7 1295.5 928C1248.3 908 1204.2 871.7 1176.6 830.1C1172.4 823.8 1158 798.4 1158 797.3C1158 797.2 1156.6 794 1154.9 790.3C1150.3 780 1150.2 779.8 1148.7 775.5C1140.8 752.8 1138.8 745.4 1136 730.5C1132.3 709.8 1132 706.4 1132 678.8C1132 650.3 1132.2 647.9 1137.4 621C1139 612.7 1143.5 595.6 1144.9 592.5C1145.4 591.4 1146.4 588.7 1147.3 586.5C1154.5 567.3 1164.7 546.2 1170.9 537.2C1171.9 535.7 1174.9 531.1 1177.6 527C1204.8 485 1251.4 447.8 1300.5 428.6C1306 426.5 1311.9 424.1 1313.7 423.4C1315.4 422.6 1317.3 422 1318 422C1319 422 1324.7 420.4 1332.8 417.9C1334.7 417.3 1338.5 416.4 1341.3 416C1344.2 415.5 1350.8 414.4 1356 413.5C1381.9 409.1 1406.8 408.9 1441.9 412.9C1446.5 413.5 1452.4 414.4 1454.9 414.9C1468.6 418.1 1473.1 419.2 1479.5 421.1C1483.4 422.2 1487.9 423.8 1489.7 424.6C1491.4 425.4 1493.3 426 1493.9 426C1494.5 426 1495.8 426.4 1496.8 427C1498.5 427.9 1508 432.3 1520 437.6C1523.5 439.2 1528.7 441.6 1531.6 443.1L1536.7 445.6L1537.4 437.6C1537.7 433.1 1538 382.4 1538 324.8C1538 242.2 1538.3 219.9 1539.3 219.3C1540.6 218.4 1664.2 217.6 1667.8 218.5L1670 219V456.1C1670 708.2 1670.1 700.8 1665.4 728.5C1660 760 1648.5 791 1631.6 819.5C1609.4 856.8 1578.1 887.8 1537.8 912.2C1530.1 916.9 1509.7 927 1508 927C1507.5 927 1504.3 928.3 1500.8 929.8C1494.2 932.8 1478.8 937.8 1468.5 940.4C1465.2 941.2 1460.6 942.3 1458.3 942.9C1456 943.5 1451.1 944.5 1447.3 945C1443.6 945.6 1437.8 946.4 1434.5 947C1425.9 948.3 1391.7 949 1377.4 948ZM1416.1 816.5C1421.3 815.8 1426.9 814.7 1428.5 814.1C1430.2 813.6 1434.4 812.2 1438 811.1C1449 807.7 1452.4 806.3 1461.6 801.4C1476.6 793.5 1484 788 1497 775C1507.2 764.8 1510.7 760.5 1516.1 751.5C1526.7 733.9 1531.2 722.9 1535.6 704.5C1538 694.3 1538 664.9 1535.6 656C1534.7 652.4 1533.2 646.8 1532.3 643.5C1531.5 640.2 1530.1 636.1 1529.4 634.3C1528.6 632.6 1528 630.9 1528 630.6C1528 629.4 1522.4 618.1 1518.3 611.2C1506.4 590.9 1488.9 573.4 1468.7 561.7C1457.5 555.1 1445.6 549.7 1438.9 548C1416.9 542.3 1411.7 541.7 1394.5 542.3C1380.5 542.9 1376.8 543.5 1359 548C1353.6 549.3 1338.2 556.7 1329.1 562.2C1306.7 575.8 1286.6 598.2 1275.2 622C1270.9 631.1 1265 648 1265 651.4C1265 652.6 1264.3 656 1263.5 659C1261.4 666.6 1261.4 692 1263.4 702C1269.3 730.6 1281.5 754.1 1301 774.4C1308.6 782.4 1323.7 795 1325.6 795C1326 795 1327.1 795.6 1327.9 796.4C1330.2 798.5 1347 807 1348.9 807C1349.8 807 1351.4 807.7 1352.4 808.5C1353.5 809.3 1355.3 810 1356.4 810C1357.6 810 1359.4 810.7 1360.4 811.5C1361.5 812.3 1363.5 813 1364.8 813C1366.1 813 1369.3 813.7 1371.9 814.5C1382.3 817.8 1401.9 818.7 1416.1 816.5Z" fill="white"/>
<path d="M1948.8 948C1942.4 947.6 1934.9 946.8 1932.3 946.2C1929.7 945.6 1925 944.9 1922 944.5C1919 944.2 1915.2 943.5 1913.5 943C1911.9 942.5 1907.6 941.4 1904 940.5C1894.1 937.9 1878 932.9 1873 930.8C1870.5 929.7 1867.6 928.5 1866.5 928.1C1859.8 925.4 1843 916.8 1833.8 911.3C1807.1 895.4 1780.3 872.5 1761.5 849.5C1746.4 831.1 1730.6 803.6 1721 779C1719.8 776 1718.4 772.6 1718 771.5C1712.7 758.8 1707 735.1 1704.3 714C1701.5 691.8 1703 639.4 1706.8 627.5C1707.4 625.9 1708.5 620.9 1709.5 616.5C1711.4 607 1715.2 593.7 1718 586.5C1718.4 585.4 1719.5 582.5 1720.5 580C1721.4 577.5 1722.9 573.9 1723.7 572C1724.5 570.1 1725.9 566.9 1726.7 565C1728.5 560.8 1734.7 548.7 1737.1 544.5C1738.1 542.9 1740.7 538.3 1742.9 534.4C1745.1 530.5 1747.5 526.8 1748.4 526.1C1749.2 525.4 1751.6 522.3 1753.6 519.2C1767.2 498.5 1791.1 475.6 1819.5 455.8C1833.3 446.2 1861.4 431.8 1876.5 426.5C1879.3 425.6 1882.4 424.4 1883.5 424C1884.6 423.5 1888.9 422.2 1893 421C1897.1 419.9 1902.1 418.5 1904 417.9C1905.9 417.4 1909.8 416.5 1912.5 416C1915.3 415.6 1920.4 414.7 1924 414.1C1927.6 413.5 1933.7 412.4 1937.5 411.7C1947.2 410 1992.7 410.1 2005 411.8C2033.7 415.9 2055.2 421.6 2075 430.3C2091.4 437.5 2098.3 440.8 2103.3 443.8C2105.5 445.1 2107.5 445.8 2107.8 445.5C2108.2 445.1 2108.4 394.3 2108.3 332.4C2108 220.6 2108 220 2110.1 219C2112.5 217.7 2238.4 218 2239.7 219.3C2240.1 219.8 2240.4 329.4 2240.3 462.8C2240.2 679.8 2240 706.7 2238.6 717C2237.7 723.3 2236.5 730.1 2236 732C2235.5 733.9 2234.4 739.1 2233.4 743.5C2232.5 747.9 2230.4 755.8 2228.8 761C2225.9 770.2 2225.2 772.2 2221.6 780.3C2220.7 782.4 2220 784.5 2220 785.1C2220 786.6 2211.1 804.6 2206.8 811.8C2204.7 815.2 2203 818.2 2203 818.5C2203 819.7 2187.4 841.7 2180.3 850.5C2168.3 865.5 2142.7 889.7 2130 898C2128.8 898.8 2125.9 900.9 2123.6 902.6C2121.4 904.3 2117.3 906.9 2114.5 908.4C2111.8 910 2108.8 911.8 2108 912.4C2107.2 913.1 2104.6 914.6 2102.3 915.8C2100 916.9 2097.3 918.3 2096.3 918.9C2094.1 920.1 2079.3 926.9 2076.5 928.1C2067.8 931.6 2058 935.1 2055 935.7C2053.6 936 2052.1 936.6 2051.5 937C2051 937.4 2048.9 938.1 2047 938.5C2045.1 938.9 2041.5 939.8 2039 940.5C2032.9 942.4 2025.2 944 2017.7 945.1C2014.3 945.6 2008.8 946.4 2005.5 947C1996.8 948.3 1962.5 949 1948.8 948ZM1986.7 816.6C1991.8 815.8 1997.4 814.7 1999.2 814.2C2001 813.6 2005.2 812.4 2008.5 811.4C2021.5 807.4 2036.3 800.2 2048.8 791.7C2064.5 780.9 2082.4 761 2090.8 745.2C2092.7 741.5 2094.6 738.1 2095 737.5C2095.9 736.2 2101.6 721.4 2102.8 717C2107.5 700.3 2109.3 684.3 2108 670.9C2106.6 657.9 2102.3 638.7 2100 635.5C2099.6 635 2099 633.2 2098.6 631.5C2096.9 624.7 2087.3 607.3 2079.4 597C2072.5 587.9 2055 571.7 2045.9 565.9C2041.3 562.9 2036.6 559.9 2035.5 559.2C2034.4 558.6 2032.6 557.6 2031.5 557.1C2030.4 556.6 2027.4 555.3 2025 554.2C2015.4 549.9 2010.7 548 2009.3 548C2008.4 548 2005.7 547.3 2003.1 546.5C1992.8 543.3 1986.1 542.5 1969.5 542.5C1952.6 542.6 1948.5 543.1 1932 547.5C1925.8 549.2 1925.6 549.2 1914 554.9C1900.4 561.4 1892 566.6 1884.9 572.6C1851.8 600.9 1835 633.3 1832.3 674.2C1831.4 687.9 1834.7 708.8 1840.1 724C1841.9 729 1849 744 1851.1 747C1852 748.4 1855 752.9 1857.6 757C1866.3 770.4 1886.7 789.3 1902.2 798.5C1905.8 800.7 1918.7 806.9 1922.5 808.3C1924.7 809.1 1928.3 810.4 1930.5 811.3C1937.2 813.8 1943.1 815 1952.5 816.1C1957.5 816.6 1962 817.2 1962.5 817.4C1964.8 818.4 1978.2 817.9 1986.7 816.6Z" fill="white"/>
<path d="M2274.1 936.6C2272.5 934.7 2272.5 670.9 2274 655.5C2276.2 634.8 2279 618.5 2282.4 607C2283.2 604.5 2284.6 599.8 2285.5 596.5C2286.5 593.2 2287.9 589.1 2288.7 587.3C2289.4 585.6 2290 583.8 2290 583.2C2290 581 2302.2 554.8 2308.2 544C2323.7 516.3 2346.4 490.3 2374.6 467.8C2396.7 450.1 2414.9 439.9 2447.5 426.5C2450.2 425.4 2458.6 422.8 2472.7 418.5C2475.6 417.7 2480.5 416.6 2483.7 416.1C2489.5 415.2 2496.4 414 2509.5 411.7C2519.2 410 2563.7 410.1 2576 411.8C2589.4 413.7 2603 416.2 2609 417.9C2610.9 418.5 2615.9 419.9 2620 421C2624.1 422.2 2628.2 423.5 2629 423.9C2629.9 424.4 2632 425.1 2633.8 425.4C2635.5 425.8 2637.2 426.6 2637.5 427.1C2637.9 427.6 2638.8 428 2639.6 428C2640.4 428 2643.2 428.9 2645.8 430.1C2648.4 431.2 2652.1 432.8 2654 433.7C2667 439.3 2696.4 456.2 2700 460C2700.3 460.3 2705.2 464.2 2711 468.5C2739.5 490.2 2768.6 526.5 2785.8 562.2C2788.1 567 2790 571.2 2790 571.6C2790 571.9 2790.7 573.8 2791.6 575.8C2792.5 577.9 2793.8 581 2794.6 582.8C2795.4 584.6 2796 586.7 2796 587.5C2796 588.2 2796.6 590.1 2797.4 591.7C2799.6 595.9 2804.1 612.5 2806.4 624C2807.1 628.1 2808.4 634.2 2809.1 637.5C2811.1 646.6 2812.1 932.5 2810.2 935.8L2808.9 938.1L2746.2 937.8C2711.7 937.6 2682.9 937.1 2682.3 936.7C2681.3 936.1 2681 908.3 2680.9 803.7C2680.9 731 2680.5 668.1 2680 664C2676.2 632.2 2663.2 606 2639.6 582.4C2625.3 568.2 2614.2 560.6 2596 552.7C2594.1 551.8 2590.9 550.4 2588.8 549.6C2586.8 548.7 2584.6 548 2583.9 548C2583.2 548 2580.8 547.4 2578.5 546.6C2568.5 543.1 2559.2 541.8 2543.4 541.8C2534.7 541.8 2525 542.4 2522 543C2501.5 547.4 2497 548.9 2482.5 556.1C2469.9 562.4 2454.1 574.1 2443.9 584.6C2430.6 598.5 2418.3 618.4 2413.2 634.5C2412 638.4 2410.5 642.9 2410 644.5C2409.5 646.2 2408.3 651.4 2407.3 656C2405.7 663.8 2405.6 676.3 2405.3 800.3L2405 936.1L2402.6 937C2401.2 937.5 2372.4 937.9 2337.7 938C2283.9 938 2275.1 937.8 2274.1 936.6Z" fill="white"/>
</svg>
