<svg xmlns="http://www.w3.org/2000/svg" viewBox="0 0 351 259" fill="#76B900">
  <path d="M82.2 102.4s22.5-33.2 67.4-36.6V53.7c-49.8 4-92.9 46.2-92.9 46.2s24.4 70.6 92.9 77v-12.8c-50.2-6.3-67.4-61.7-67.4-61.7zm67.4 36.2v11.7c-38-6.8-48.5-46.2-48.5-46.2s18.2-20.2 48.5-23.5v12.9l-.1-.1c-15.9-1.9-28.3 12.9-28.3 12.9s7 25 28.4 32.2zm0-107.1v22.2c1.5-.1 2.9-.2 4.4-.3 56.6-1.9 93.4 46.4 93.4 46.4s-42.3 51.5-86.5 51.5c-4 0-7.8-.4-11.4-1v13.7c3.1.4 6.3.6 9.5.6 41 0 70.7-21 99.5-45.8 4.8 3.8 24.3 13.1 28.3 17.2-27.3 22.9-91 41.3-127.1 41.3-3.5 0-6.8-.2-10.1-.5v19.3h156V31.5H149.6zm0 49.1v-14.9c1.4-.1 2.9-.2 4.4-.2 40.7-1.3 67.4 35 67.4 35s-28.8 40-59.7 40c-4.5 0-8.4-.7-12-1.9V93.5c15.8 1.9 19 8.9 28.5 24.8l21.2-17.9s-15.5-20.3-41.5-20.3c-2.8 0-5.5.2-8.2.5z"/>
</svg>